<svg width="9" height="7" viewBox="0 0 9 7" fill="none" xmlns="http://www.w3.org/2000/svg">
<path fill-rule="evenodd" clip-rule="evenodd" d="M4.04606 2.90793L6.81069 0.14331C7.00176 -0.04777 7.31075 -0.04777 7.4998 0.14331L7.95923 0.60273C8.1503 0.79381 8.1503 1.1028 7.95923 1.29185L6.00163 3.25351L7.96126 5.21314C8.15234 5.40422 8.15234 5.71321 7.96126 5.90226L7.50183 6.36371C7.31075 6.55479 7.00176 6.55479 6.81272 6.36371L4.04809 3.59909C3.85497 3.40801 3.85497 3.09902 4.04606 2.90793ZM0.143065 3.59909L2.90768 6.36371C3.09876 6.55479 3.40775 6.55479 3.5968 6.36371L4.05621 5.9043C4.24729 5.71322 4.24729 5.40423 4.05621 5.21518L2.09861 3.25352L4.05824 1.29389C4.24932 1.10281 4.24932 0.79382 4.05824 0.60477L3.59883 0.14332C3.40775 -0.04776 3.09876 -0.04776 2.90971 0.14332L0.145095 2.90794C-0.0480252 3.09902 -0.0480252 3.40801 0.143065 3.5991V3.59909Z" fill="#434854"/>
</svg>
