<svg width="9" height="7" viewBox="0 0 9 7" fill="none" xmlns="http://www.w3.org/2000/svg">
<path fill-rule="evenodd" clip-rule="evenodd" d="M4.05849 3.59909L1.29387 6.36371C1.10279 6.55479 0.793798 6.55479 0.604748 6.36371L0.145328 5.90429C-0.0457516 5.71321 -0.0457517 5.40422 0.145328 5.21517L2.10293 3.25351L0.143298 1.29388C-0.0477824 1.1028 -0.0477824 0.79381 0.143298 0.60476L0.602718 0.14331C0.793798 -0.0477703 1.10279 -0.0477704 1.29184 0.14331L4.05646 2.90793C4.24958 3.09901 4.24958 3.408 4.05849 3.59909ZM7.96149 2.90793L5.19687 0.143309C5.00579 -0.0477707 4.6968 -0.0477707 4.50775 0.143309L4.04834 0.602719C3.85726 0.793799 3.85726 1.10279 4.04834 1.29184L6.00594 3.2535L4.04631 5.21313C3.85523 5.40421 3.85523 5.7132 4.04631 5.90225L4.50572 6.3637C4.6968 6.55478 5.00579 6.55478 5.19484 6.3637L7.95946 3.59908C8.15258 3.408 8.15258 3.09901 7.96149 2.90792L7.96149 2.90793Z" fill="#434854"/>
</svg>
