<svg width="26" height="16" viewBox="0 0 26 16" fill="none" xmlns="http://www.w3.org/2000/svg">
<path d="M5.70601 6.43701L9.73601 2.40701C9.8615 2.28138 9.93198 2.11107 9.93198 1.93351C9.93198 1.75594 9.8615 1.58563 9.73601 1.46001L8.47401 0.200005C8.34838 0.0745159 8.17807 0.00402832 8.0005 0.00402832C7.82294 0.00402832 7.65263 0.0745159 7.52701 0.200005L0.200005 7.52601C0.0745159 7.65163 0.00402832 7.82194 0.00402832 7.99951C0.00402832 8.17707 0.0745159 8.34738 0.200005 8.47301L7.53001 15.803C7.65563 15.9285 7.82594 15.999 8.00351 15.999C8.18107 15.999 8.35138 15.9285 8.47701 15.803L9.74001 14.54C9.86549 14.4144 9.93598 14.2441 9.93598 14.0665C9.93598 13.8889 9.86549 13.7186 9.74001 13.593L5.71001 9.56301H24.6C24.7777 9.56301 24.9481 9.49242 25.0738 9.36677C25.1994 9.24112 25.27 9.0707 25.27 8.89301V7.10701C25.27 6.92931 25.1994 6.75889 25.0738 6.63324C24.9481 6.50759 24.7777 6.43701 24.6 6.43701H5.70601Z" fill="#1E253A"/>
</svg>
