<svg width="219" height="214" viewBox="0 0 219 214" fill="none" xmlns="http://www.w3.org/2000/svg">
<path fill-rule="evenodd" clip-rule="evenodd" d="M111.335 213.993H107.321C48.3266 213.993 0.328003 165.994 0.328003 106.999C0.328003 48.0045 48.3266 0.00601196 107.321 0.00601196H111.335C170.33 0.00601196 218.328 48.0045 218.328 106.999C218.328 165.994 170.33 213.993 111.335 213.993ZM107.298 11.5127C54.6598 11.5127 11.8115 54.3378 11.8115 106.999C11.8115 159.638 54.6367 202.486 107.298 202.486H111.311C163.95 202.486 206.798 159.661 206.798 106.999C206.798 54.361 163.973 11.5127 111.311 11.5127H107.298V11.5127Z" fill="white"/>
<path fill-rule="evenodd" clip-rule="evenodd" d="M153.023 65.497L96.7656 121.754L74.4946 99.4834L59.021 114.957L96.7656 152.678L168.497 80.9707L153.023 65.497Z" fill="white"/>
</svg>
