<svg width="27" height="17" viewBox="0 0 27 17" fill="none" xmlns="http://www.w3.org/2000/svg">
<path d="M2.4359 10.1431L20.9112 10.1431L16.9167 14.1375C16.7704 14.2838 16.6544 14.4575 16.5752 14.6486C16.496 14.8398 16.4553 15.0447 16.4553 15.2516C16.4553 15.4585 16.496 15.6633 16.5752 15.8545C16.6544 16.0456 16.7704 16.2193 16.9167 16.3656C17.063 16.5119 17.2367 16.628 17.4279 16.7071C17.619 16.7863 17.8239 16.8271 18.0308 16.8271C18.2377 16.8271 18.4426 16.7863 18.6337 16.7071C18.8249 16.628 18.9985 16.5119 19.1448 16.3656L25.8291 9.68132C25.9755 9.53517 26.0915 9.36159 26.1707 9.17053C26.2499 8.97946 26.2906 8.77466 26.2905 8.56784C26.2905 8.36101 26.2496 8.15623 26.1703 7.96522C26.091 7.7742 25.9748 7.6007 25.8284 7.45464L19.142 0.768241C18.8465 0.472778 18.4458 0.306788 18.028 0.306788C17.6101 0.306788 17.2094 0.472778 16.9139 0.768241C16.6184 1.0637 16.4525 1.46444 16.4525 1.88229C16.4525 2.30014 16.6184 2.70087 16.9139 2.99633L20.9084 6.99078L2.43519 6.9929C2.2283 6.9929 2.02344 7.03365 1.8323 7.11283C1.64116 7.192 1.46748 7.30804 1.32119 7.45434C1.02574 7.74979 0.859756 8.15051 0.859757 8.56834C0.859758 8.98617 1.02574 9.38689 1.32119 9.68234C1.61664 9.97779 2.01736 10.1438 2.43519 10.1438L2.4359 10.1431Z" fill="#1E253A"/>
</svg>
