<?xml version="1.0" encoding="utf-8"?>
<!-- Generator: Adobe Illustrator 25.0.1, SVG Export Plug-In . SVG Version: 6.00 Build 0)  -->
<svg version="1.1" id="Layer_1" xmlns="http://www.w3.org/2000/svg" xmlns:xlink="http://www.w3.org/1999/xlink" x="0px" y="0px"
	 viewBox="0 0 1190.6 841.9" style="enable-background:new 0 0 1190.6 841.9;" xml:space="preserve">
<style type="text/css">
	.st0{fill:#494E59;}
	.st1{fill:#A4BA44;}
</style>
<g>
	<g id="XMLID_8_">
		<path id="XMLID_30_" class="st0" d="M1063.6,152.2h-22.7c-2.9,0-5.4-1.4-7-3.8c-1.7-2.5-2.2-5.8-1.5-9.2l5.8-26.2
			c1.4-6.1,6.6-11,12-11h22.7c2.9,0,5.4,1.4,7,3.8c1.7,2.5,2.2,5.8,1.5,9.2l-5.8,26.2C1074.3,147.4,1069,152.2,1063.6,152.2z
			 M1050.2,110.2c-2.2,0-4.6,2.3-5.2,4.9l-5.8,26.2c-0.2,0.9-0.1,1.7,0.2,2.2c0.4,0.6,1,0.7,1.5,0.7h22.7c2.2,0,4.6-2.3,5.2-4.9
			l5.8-26.2c0.2-0.9,0.1-1.7-0.2-2.2c-0.4-0.6-1-0.7-1.5-0.7H1050.2z"/>
		<path id="XMLID_29_" class="st0" d="M859.8,174.9h-47.4c-7.9,0-12.7-7.4-10.7-16.5l12-54.7c2-9.1,10.1-16.5,18-16.5h47.4
			c7.9,0,12.7,7.4,10.7,16.5l-12,54.7C875.8,167.5,867.8,174.9,859.8,174.9z"/>
		<path id="XMLID_20_" class="st0" d="M966.9,313.6h-55.6c-9.3,0-14.9-8.7-12.5-19.4l14.1-64.1c2.4-10.7,11.8-19.4,21.1-19.4h55.6
			c9.3,0,14.9,8.7,12.5,19.4L988,294.2C985.6,304.9,976.2,313.6,966.9,313.6z"/>
		<path id="XMLID_9_" class="st0" d="M991.1,161.9h-41.2c-6.9,0-11-6.4-9.3-14.3l10.4-47.4c1.7-7.9,8.7-14.3,15.6-14.3h41.2
			c6.9,0,11,6.4,9.3,14.3l-10.4,47.4C1005,155.5,998,161.9,991.1,161.9z"/>
		<path id="XMLID_10_" class="st0" d="M1009.9,62.8h-22.7c-2.9,0-5.4-1.4-7-3.8c-1.7-2.5-2.2-5.8-1.5-9.2l5.8-26.2
			c1.4-6.1,6.6-11,12-11h22.7c2.9,0,5.4,1.4,7,3.8c1.7,2.5,2.2,5.8,1.5,9.2l-5.8,26.2C1020.5,58,1015.2,62.8,1009.9,62.8z
			 M996.4,20.8c-2.2,0-4.6,2.3-5.2,4.9l-5.8,26.2c-0.2,0.9-0.1,1.7,0.2,2.2c0.4,0.6,1,0.7,1.5,0.7h22.7c2.2,0,4.6-2.3,5.2-4.9
			l5.8-26.2c0.2-0.9,0.1-1.7-0.2-2.2c-0.4-0.6-1-0.7-1.5-0.7H996.4z"/>
		<path id="XMLID_13_" class="st0" d="M1094.9,55h-18.6c-2.3,0-4.5-1.1-5.8-3.1c-1.4-2-1.8-4.8-1.2-7.5l4.7-21.5c1.1-5,5.4-9,9.9-9
			h18.6c2.3,0,4.5,1.1,5.8,3.1c1.4,2,1.8,4.8,1.2,7.5l-4.7,21.5C1103.7,51,1099.3,55,1094.9,55z M1083.9,20.5c-1.8,0-3.8,1.9-4.3,4
			l-4.7,21.5c-0.2,0.8-0.1,1.4,0.2,1.8c0.3,0.5,0.8,0.6,1.3,0.6h18.6c1.8,0,3.8-1.9,4.3-4l4.7-21.5c0.2-0.8,0.1-1.4-0.2-1.8
			c-0.3-0.5-0.8-0.6-1.2-0.6H1083.9z"/>
	</g>
	<path class="st0" d="M112.4,411.3c0.7-4.8,1.7-9.6,2.2-14.4c7.1-65.8,30.2-125.6,68.3-179.5c41.7-59.1,96-103.2,162.3-132.2
		c28.9-12.7,58.9-21.5,90-26.7c24.8-4.2,49.8-6.1,74.9-5.4c49.4,1.3,97,11.2,142.3,31c15.6,6.8,30.4,15.3,45.7,22.9
		c3.9,1.9,4.9,4.5,4.9,8.8c-0.1,108.6-0.1,217.3-0.1,325.9c0,35.3-0.2,70.6,0.1,105.8c0.2,26.9-19.8,63-56.1,72.2
		c-22,5.5-43.7,5-64.7-4.5c-18.5-8.4-28.6-23.8-32.6-43.1c-1.6-7.9-2.1-16.2-2.2-24.3c-0.2-74.1-0.1-148.2-0.1-222.3
		c0-36.2-12.2-68.3-34.4-96.5c-23.8-30.3-55.8-47.3-93.3-55.1c-21.9-4.6-43.9-5.4-66-4.2c-37.1,2.1-72.4,10.9-103.3,33
		c-29.2,20.9-48.3,49.3-58.1,83.4c-4.3,14.9-7.7,30.7-7.9,46.2c-1.2,67.5-1,135-1.3,202.6c-0.1,11.7,0,23.4,0,35.7
		c-16,0-31.5,0.1-46.9-0.1c-1.1,0-2.9-1.7-3.2-2.9c-5.4-21.2-11.1-42.5-15.8-63.9c-2.2-10.1-2.5-20.6-3.6-30.9
		c-0.1-0.6-0.7-1.2-1-1.8C112.4,450.9,112.4,431.1,112.4,411.3z"/>
	<path class="st1" d="M471,829.2c-4.9-0.7-9.8-1.7-14.7-2.2c-32.6-3.3-64.1-11.2-94.7-22.9c-23.8-9-46.4-20.5-68-34
		c-3.1-1.9-4.2-4-4.2-7.6c0.1-137-0.1-274,0.3-411.1c0.1-16.9,8.3-31.7,19.4-44.3c20.7-23.2,47.3-28.4,76.9-24.9
		c15.8,1.9,30,6.9,41,18.5c11,11.6,16.9,25.7,16.9,41.7c0.2,78.6-0.3,157.2,0.3,235.8c0.2,35.1,12.8,66.4,34.9,93.7
		c25,30.8,58,48,96.6,55.3c18.3,3.5,36.7,5.2,55.3,4.3c36.5-1.7,71.9-8.2,103.7-27.8c35.6-22,57.3-54.2,67.7-94.2
		c3.3-12.8,5.6-26.2,5.7-39.3c0.8-76.3,0.9-152.6,1.3-228.9c0-2.2,0-4.4,0-7c21.6,0,42.8,0,64.9,0c2.6,10.8,5.7,21.8,7.8,33.1
		c5.1,27.7,7.7,55.8,6.8,84c-1.3,46.7-10.5,91.8-28,135.1c-21.7,53.7-53.9,100.3-96.4,139.6c-53.4,49.4-116,81.3-187.2,95.9
		c-14.5,3-29.3,4-44,6c-1,0.1-2,0.7-2.9,1.1C510.6,829.2,490.8,829.2,471,829.2z"/>
</g>
</svg>
