<svg width="26" height="22" viewBox="0 0 26 22" fill="none" xmlns="http://www.w3.org/2000/svg">
<path fill-rule="evenodd" clip-rule="evenodd" d="M23.8321 0H1.85349C0.839205 0.00489 0.0153637 0.82058 0.000383377 1.83476V2.58151C0.00240326 3.60382 0.831184 4.43178 1.85349 4.43279H23.8321C24.8537 4.43381 25.6839 3.60861 25.6889 2.58702V1.83844C25.6759 0.8214 24.8492 0.00293 23.8321 1e-05V0Z" fill="#434854"/>
<path fill-rule="evenodd" clip-rule="evenodd" d="M23.8321 8.40503H1.85349C0.839205 8.40992 0.0153637 9.22561 0.000383377 10.2398V10.992C0.00139427 12.0151 0.830475 12.8441 1.85349 12.8451H23.8321C24.3241 12.8456 24.7961 12.6507 25.1443 12.3031C25.4925 11.9556 25.6884 11.484 25.6889 10.992V10.2435C25.6759 9.22642 24.8492 8.40795 23.8321 8.40503Z" fill="#434854"/>
<path fill-rule="evenodd" clip-rule="evenodd" d="M11.9168 16.812H1.85311C0.838818 16.8169 0.0149775 17.6326 -2.86102e-06 18.6468V19.3917C0.00100708 20.4147 0.830088 21.2438 1.85311 21.2448H11.9168C12.9398 21.2438 13.7689 20.4147 13.7699 19.3917V18.6449C13.7539 17.6315 12.9304 16.8169 11.9168 16.812V16.812Z" fill="#434854"/>
</svg>
