<svg width="19" height="23" viewBox="0 0 19 23" fill="none" xmlns="http://www.w3.org/2000/svg">
<path fill-rule="evenodd" clip-rule="evenodd" d="M17.032 16.6617C17.0208 16.6519 17.0093 16.6414 16.9981 16.6314C16.2422 15.9757 15.8081 15.025 15.8081 14.0247V9.27106H15.8025C15.804 9.20514 15.8057 9.13898 15.8057 9.07184C15.8057 5.92536 13.606 3.29303 10.6599 2.62824C10.6655 2.57502 10.668 2.52057 10.668 2.46564C10.668 1.58869 9.95753 0.877991 9.08033 0.877991C8.20313 0.877991 7.49244 1.58868 7.49244 2.46564C7.49244 2.5401 7.49708 2.61261 7.50709 2.68439C4.6775 3.43195 2.59205 6.00836 2.59205 9.07184C2.59205 9.13898 2.59278 9.20514 2.59522 9.27106V13.8157C2.59522 14.8577 2.12452 15.8443 1.31421 16.4986C1.25391 16.5474 1.19531 16.5965 1.13818 16.6463C0.45678 17.2425 0.04907 18.088 0 18.9871H18.1533C18.1042 18.0963 17.7044 17.2557 17.032 16.6617L17.032 16.6617Z" fill="#434854"/>
<path fill-rule="evenodd" clip-rule="evenodd" d="M6.41699 19.465C6.41943 20.9335 7.61059 22.1224 9.0791 22.1224C10.5479 22.1224 11.739 20.9327 11.7415 19.465H6.41699Z" fill="#434854"/>
</svg>
