<svg width="19" height="20" viewBox="0 0 19 20" fill="none" xmlns="http://www.w3.org/2000/svg">
<path d="M9.26898 0.918001C7.47588 0.917012 5.72276 1.44782 4.23137 2.4433C2.73998 3.43877 1.57732 4.85418 0.890447 6.51051C0.203572 8.16683 0.0233407 9.98966 0.372551 11.7484C0.721761 13.5072 1.58472 15.1229 2.85229 16.3912C4.11985 17.6594 5.73507 18.5233 7.49364 18.8735C9.25222 19.2236 11.0751 19.0444 12.7318 18.3584C14.3886 17.6725 15.8046 16.5106 16.8009 15.0198C17.7972 13.5289 18.329 11.7761 18.329 9.983C18.3295 7.57952 17.3753 5.27425 15.6763 3.57426C13.9772 1.87427 11.6725 0.918796 9.26898 0.918001ZM9.87898 10.767C9.87845 10.9286 9.81401 11.0835 9.69973 11.1978C9.58545 11.312 9.4306 11.3765 9.26898 11.377H5.08498C4.9232 11.377 4.76804 11.3127 4.65364 11.1983C4.53925 11.0839 4.47498 10.9288 4.47498 10.767C4.47498 10.6052 4.53925 10.4501 4.65364 10.3357C4.76804 10.2213 4.9232 10.157 5.08498 10.157H8.65898V4.404C8.65898 4.24222 8.72325 4.08706 8.83764 3.97267C8.95204 3.85827 9.1072 3.794 9.26898 3.794C9.43076 3.794 9.58592 3.85827 9.70031 3.97267C9.81471 4.08706 9.87898 4.24222 9.87898 4.404V10.767Z" fill="#9BBA52"/>
</svg>
